<?xml version="1.0" encoding="UTF-8"?>
<svg xmlns="http://www.w3.org/2000/svg" xmlns:xlink="http://www.w3.org/1999/xlink" viewBox="0 0 24 24" width="24px" height="24px">
<g id="surface70601831">
<path style=" stroke:none;fill-rule:nonzero;fill:rgb(91.37255%,76.862746%,41.568628%);fill-opacity:1;" d="M 19.980469 2.988281 C 19.941406 2.992188 19.90625 2.996094 19.871094 3 L 15 3 C 14.640625 2.996094 14.304688 3.183594 14.121094 3.496094 C 13.941406 3.808594 13.941406 4.191406 14.121094 4.503906 C 14.304688 4.816406 14.640625 5.003906 15 5 L 17.585938 5 L 8.292969 14.292969 C 8.03125 14.542969 7.925781 14.917969 8.019531 15.265625 C 8.109375 15.617188 8.382812 15.890625 8.734375 15.980469 C 9.082031 16.074219 9.457031 15.96875 9.707031 15.707031 L 19 6.414062 L 19 9 C 18.996094 9.359375 19.183594 9.695312 19.496094 9.878906 C 19.808594 10.058594 20.191406 10.058594 20.503906 9.878906 C 20.816406 9.695312 21.003906 9.359375 21 9 L 21 4.128906 C 21.039062 3.835938 20.949219 3.542969 20.753906 3.320312 C 20.558594 3.101562 20.273438 2.980469 19.980469 2.988281 Z M 5 3 C 3.90625 3 3 3.90625 3 5 L 3 19 C 3 20.09375 3.90625 21 5 21 L 19 21 C 20.09375 21 21 20.09375 21 19 L 21 13 C 21.003906 12.640625 20.816406 12.304688 20.503906 12.121094 C 20.191406 11.941406 19.808594 11.941406 19.496094 12.121094 C 19.183594 12.304688 18.996094 12.640625 19 13 L 19 19 L 5 19 L 5 5 L 11 5 C 11.359375 5.003906 11.695312 4.816406 11.878906 4.503906 C 12.058594 4.191406 12.058594 3.808594 11.878906 3.496094 C 11.695312 3.183594 11.359375 2.996094 11 3 Z M 5 3 "/>
</g>
</svg>
